<svg width="176" height="32" viewBox="0 0 176 32" fill="none" xmlns="http://www.w3.org/2000/svg">
<path d="M8.53836 25.1544C6.92039 25.1544 5.54864 24.8848 4.4231 24.3454C3.32101 23.8061 2.47685 23.1027 1.89063 22.2351C1.30441 21.344 0.976128 20.3826 0.905781 19.3509H3.64929C3.71964 19.9371 3.91895 20.5116 4.24723 21.0743C4.59896 21.6137 5.12656 22.0592 5.83003 22.4109C6.53349 22.7392 7.44799 22.9033 8.57353 22.9033C8.92527 22.9033 9.35907 22.8682 9.87494 22.7978C10.3908 22.7275 10.8832 22.5985 11.3522 22.4109C11.8446 22.2233 12.255 21.9419 12.5833 21.5668C12.9116 21.1916 13.0757 20.7109 13.0757 20.1247C13.0757 19.3978 12.7943 18.835 12.2315 18.4364C11.6688 18.0377 10.9419 17.7329 10.0508 17.5219C9.15975 17.2874 8.21008 17.0646 7.20178 16.8536C6.21693 16.6425 5.27898 16.3729 4.38793 16.0446C3.49687 15.6928 2.76996 15.2121 2.20719 14.6025C1.64442 13.9694 1.36303 13.1135 1.36303 12.0348C1.36303 10.4403 1.93753 9.20926 3.08652 8.34165C4.25896 7.4506 5.98244 7.00507 8.25698 7.00507C9.80459 7.00507 11.0591 7.25129 12.0205 7.74371C13.0054 8.21269 13.744 8.82235 14.2364 9.57271C14.7523 10.3231 15.0571 11.1321 15.1509 11.9997H12.4778C12.384 11.2493 12.0088 10.6045 11.3522 10.0651C10.7191 9.52582 9.6639 9.25616 8.18663 9.25616C5.39622 9.25616 4.00102 10.1003 4.00102 11.7886C4.00102 12.4921 4.28241 13.0314 4.84518 13.4066C5.40795 13.7818 6.13486 14.0866 7.02591 14.3211C7.91697 14.5321 8.85492 14.7432 9.83977 14.9542C10.8481 15.1418 11.7977 15.4115 12.6888 15.7632C13.5798 16.1149 14.3068 16.6191 14.8695 17.2756C15.4323 17.9088 15.7137 18.7764 15.7137 19.8785C15.7137 21.5902 15.0571 22.9033 13.744 23.8179C12.4543 24.7089 10.7191 25.1544 8.53836 25.1544ZM19.1052 24.873V0.251822H21.7431V10.03C22.3763 9.18581 23.1501 8.47062 24.0646 7.8844C24.9791 7.29818 26.1515 7.00507 27.5819 7.00507C28.8012 7.00507 29.9385 7.29818 30.9937 7.8844C32.0723 8.44717 32.9399 9.30305 33.5965 10.452C34.2765 11.5776 34.6165 12.9728 34.6165 14.6377V24.873H31.9785V14.708C31.9785 13.1135 31.5213 11.8355 30.6068 10.8741C29.6923 9.88927 28.5081 9.39685 27.0543 9.39685C26.0694 9.39685 25.1784 9.61961 24.3811 10.0651C23.5839 10.5107 22.939 11.1438 22.4466 11.9645C21.9776 12.7617 21.7431 13.688 21.7431 14.7432V24.873H19.1052ZM46.66 25.1544C44.8779 25.1544 43.3303 24.7558 42.0172 23.9585C40.704 23.1378 39.6958 22.0357 38.9923 20.6523C38.2888 19.2688 37.9371 17.7446 37.9371 16.0798C37.9371 14.3914 38.2888 12.8673 38.9923 11.5072C39.6958 10.1238 40.704 9.03339 42.0172 8.23613C43.3303 7.41543 44.8779 7.00507 46.66 7.00507C48.4656 7.00507 50.0132 7.41543 51.3029 8.23613C52.616 9.03339 53.6243 10.1238 54.3278 11.5072C55.0313 12.8673 55.383 14.3914 55.383 16.0798C55.383 17.7446 55.0313 19.2688 54.3278 20.6523C53.6243 22.0357 52.616 23.1378 51.3029 23.9585C50.0132 24.7558 48.4656 25.1544 46.66 25.1544ZM46.66 22.7627C47.9732 22.7627 49.0753 22.4578 49.9663 21.8482C50.8808 21.2385 51.5726 20.4295 52.0415 19.4212C52.5105 18.3895 52.745 17.2756 52.745 16.0798C52.745 14.8604 52.5105 13.7466 52.0415 12.7383C51.5726 11.73 50.8808 10.921 49.9663 10.3114C49.0753 9.70168 47.9732 9.39685 46.66 9.39685C45.3704 9.39685 44.2683 9.70168 43.3538 10.3114C42.4393 10.921 41.7475 11.73 41.2785 12.7383C40.8096 13.7466 40.5751 14.8604 40.5751 16.0798C40.5751 17.2756 40.8096 18.3895 41.2785 19.4212C41.7475 20.4295 42.4393 21.2385 43.3538 21.8482C44.2683 22.4578 45.3704 22.7627 46.66 22.7627ZM66.6895 25.1544C64.9074 25.1544 63.3481 24.7558 62.0115 23.9585C60.6749 23.1378 59.6314 22.0357 58.8811 20.6523C58.1542 19.2688 57.7907 17.7446 57.7907 16.0798C57.7907 14.3914 58.1424 12.8673 58.8459 11.5072C59.5494 10.1238 60.5577 9.03339 61.8708 8.23613C63.1839 7.41543 64.7315 7.00507 66.5136 7.00507C68.3192 7.00507 69.8668 7.41543 71.1565 8.23613C72.4696 9.03339 73.4779 10.1238 74.1814 11.5072C74.8849 12.8673 75.2366 14.3914 75.2366 16.0798V17.1349H60.499C60.6397 18.1667 60.968 19.1164 61.4839 19.984C62.0232 20.8281 62.7384 21.5081 63.6294 22.024C64.5205 22.5164 65.5522 22.7627 66.7247 22.7627C67.9675 22.7627 69.0109 22.493 69.8551 21.9537C70.6993 21.3909 71.3558 20.6757 71.8248 19.8081H74.709C74.0993 21.3792 73.1262 22.6689 71.7896 23.6772C70.4765 24.662 68.7765 25.1544 66.6895 25.1544ZM60.5342 14.6728H72.4931C72.2586 13.1721 71.6255 11.9176 70.5937 10.9093C69.562 9.901 68.202 9.39685 66.5136 9.39685C64.8253 9.39685 63.4653 9.901 62.4336 10.9093C61.4253 11.9176 60.7921 13.1721 60.5342 14.6728ZM80.3592 24.873V9.60789H76.7716V7.28646H80.3592V0.99046H82.9972V7.28646H87.0421V9.60789H82.9972V24.873H80.3592ZM89.9324 24.873V0.251822H92.5704V10.03C93.2035 9.18581 93.9773 8.47062 94.8918 7.8844C95.8063 7.29818 96.9787 7.00507 98.4091 7.00507C99.6285 7.00507 100.766 7.29818 101.821 7.8844C102.9 8.44717 103.767 9.30305 104.424 10.452C105.104 11.5776 105.444 12.9728 105.444 14.6377V24.873H102.806V14.708C102.806 13.1135 102.349 11.8355 101.434 10.8741C100.52 9.88927 99.3354 9.39685 97.8815 9.39685C96.8967 9.39685 96.0056 9.61961 95.2084 10.0651C94.4111 10.5107 93.7663 11.1438 93.2738 11.9645C92.8049 12.7617 92.5704 13.688 92.5704 14.7432V24.873H89.9324ZM117.487 25.1544C115.705 25.1544 114.158 24.7558 112.844 23.9585C111.531 23.1378 110.523 22.0357 109.82 20.6523C109.116 19.2688 108.764 17.7446 108.764 16.0798C108.764 14.3914 109.116 12.8673 109.82 11.5072C110.523 10.1238 111.531 9.03339 112.844 8.23613C114.158 7.41543 115.705 7.00507 117.487 7.00507C119.293 7.00507 120.84 7.41543 122.13 8.23613C123.443 9.03339 124.452 10.1238 125.155 11.5072C125.858 12.8673 126.21 14.3914 126.21 16.0798C126.21 17.7446 125.858 19.2688 125.155 20.6523C124.452 22.0357 123.443 23.1378 122.13 23.9585C120.84 24.7558 119.293 25.1544 117.487 25.1544ZM117.487 22.7627C118.8 22.7627 119.902 22.4578 120.794 21.8482C121.708 21.2385 122.4 20.4295 122.869 19.4212C123.338 18.3895 123.572 17.2756 123.572 16.0798C123.572 14.8604 123.338 13.7466 122.869 12.7383C122.4 11.73 121.708 10.921 120.794 10.3114C119.902 9.70168 118.8 9.39685 117.487 9.39685C116.198 9.39685 115.095 9.70168 114.181 10.3114C113.266 10.921 112.575 11.73 112.106 12.7383C111.637 13.7466 111.402 14.8604 111.402 16.0798C111.402 17.2756 111.637 18.3895 112.106 19.4212C112.575 20.4295 113.266 21.2385 114.181 21.8482C115.095 22.4578 116.198 22.7627 117.487 22.7627ZM129.708 24.873V7.28646H132.346V11.6128C132.44 11.3079 132.616 10.9093 132.874 10.4169C133.155 9.901 133.554 9.38512 134.07 8.86925C134.586 8.35338 135.23 7.91958 136.004 7.56784C136.802 7.19266 137.74 7.00507 138.818 7.00507H138.994V9.64306H138.677C137.364 9.64306 136.227 10.0065 135.266 10.7334C134.328 11.4369 133.601 12.3631 133.085 13.5121C132.592 14.6377 132.346 15.8453 132.346 17.1349V24.873H129.708ZM141.728 4.33191V0.88494H144.577V4.33191H141.728ZM141.833 24.873V7.28646H144.471V24.873H141.833ZM150.946 24.873V9.60789H147.358V7.28646H150.946V0.99046H153.584V7.28646H157.629V9.60789H153.584V24.873H150.946ZM162.348 31.8373L165.549 24.6268L158.374 7.28646H161.293L166.956 21.7075L172.724 7.28646H175.608L165.197 31.8373H162.348Z" fill="#FCFCFC"/>
<path d="M4.4231 24.3454L4.20223 24.7968L4.20597 24.7986L4.4231 24.3454ZM1.89063 22.2351L1.47082 22.5112L1.47429 22.5164L1.89063 22.2351ZM0.905781 19.3509V18.8484H0.367881L0.404471 19.385L0.905781 19.3509ZM3.64929 19.3509L4.14818 19.291L4.09507 18.8484H3.64929V19.3509ZM4.24723 21.0743L3.81321 21.3275L3.81952 21.3383L3.82636 21.3488L4.24723 21.0743ZM5.83003 22.4109L5.60523 22.8605L5.61754 22.8663L5.83003 22.4109ZM9.87494 22.7978L9.94283 23.2957L9.87494 22.7978ZM11.3522 22.4109L11.1733 21.9413L11.1656 21.9444L11.3522 22.4109ZM12.2315 18.4364L12.522 18.0263V18.0263L12.2315 18.4364ZM10.0508 17.5219L9.92289 18.0079L9.935 18.0108L10.0508 17.5219ZM7.20178 16.8536L7.0965 17.3449L7.09884 17.3454L7.20178 16.8536ZM4.38793 16.0446L4.20339 16.5121L4.21422 16.5161L4.38793 16.0446ZM2.20719 14.6025L1.83157 14.9364L1.83797 14.9433L2.20719 14.6025ZM3.08652 8.34165L3.38931 8.74265L3.39056 8.7417L3.08652 8.34165ZM12.0205 7.74371L11.7914 8.19093L11.7979 8.19425L11.8045 8.19737L12.0205 7.74371ZM14.2364 9.57271L13.8162 9.84846L13.8224 9.85738L14.2364 9.57271ZM15.1509 11.9997V12.5021H15.7106L15.6505 11.9457L15.1509 11.9997ZM12.4778 11.9997L11.9792 12.062L12.0342 12.5021H12.4778V11.9997ZM11.3522 10.0651L11.0263 10.4477L11.0333 10.4534L11.3522 10.0651ZM4.84518 13.4066L4.56645 13.8247H4.56645L4.84518 13.4066ZM7.02591 14.3211L6.898 14.8072L6.91011 14.81L7.02591 14.3211ZM9.83977 14.9542L9.73445 15.4457L9.74786 15.4482L9.83977 14.9542ZM12.6888 15.7632L12.5043 16.2306L12.6888 15.7632ZM14.8695 17.2756L14.488 17.6027L14.494 17.6095L14.8695 17.2756ZM13.744 23.8179L14.0296 24.2313L14.0312 24.2302L13.744 23.8179ZM8.53836 24.652C6.97411 24.652 5.681 24.391 4.64023 23.8923L4.20597 24.7986C5.41628 25.3785 6.86668 25.6569 8.53836 25.6569V24.652ZM4.64396 23.8941C3.60711 23.3867 2.83615 22.7369 2.30697 21.9537L1.47429 22.5164C2.11755 23.4684 3.0349 24.2255 4.20224 24.7968L4.64396 23.8941ZM2.31041 21.9589C1.77019 21.1378 1.47136 20.2593 1.40709 19.3167L0.404471 19.385C0.480894 20.5059 0.83863 21.5502 1.47085 22.5112L2.31041 21.9589ZM0.905781 19.8533H3.64929V18.8484H0.905781V19.8533ZM3.15039 19.4107C3.22973 20.0719 3.45392 20.7116 3.81321 21.3275L4.68126 20.8212C4.38398 20.3115 4.20954 19.8023 4.14818 19.291L3.15039 19.4107ZM3.82636 21.3488C4.23653 21.9778 4.8397 22.4775 5.60531 22.8604L6.05474 21.9615C5.41342 21.6408 4.9614 21.2496 4.66811 20.7999L3.82636 21.3488ZM5.61754 22.8663C6.41053 23.2363 7.40507 23.4058 8.57353 23.4058V22.4009C7.49092 22.4009 6.65645 22.2421 6.04251 21.9556L5.61754 22.8663ZM8.57353 23.4058C8.95594 23.4058 9.41405 23.3678 9.94283 23.2957L9.80705 22.3C9.30409 22.3685 8.89459 22.4009 8.57353 22.4009V23.4058ZM9.94283 23.2957C10.4982 23.22 11.0305 23.0808 11.5388 22.8775L11.1656 21.9444C10.7359 22.1163 10.2835 22.235 9.80705 22.3L9.94283 23.2957ZM11.5311 22.8805C12.0958 22.6654 12.576 22.3382 12.9614 21.8976L12.2051 21.2359C11.934 21.5457 11.5935 21.7813 11.1733 21.9414L11.5311 22.8805ZM12.9614 21.8976C13.3836 21.4152 13.5782 20.81 13.5782 20.1247H12.5732C12.5732 20.6118 12.4395 20.968 12.2051 21.2359L12.9614 21.8976ZM13.5782 20.1247C13.5782 19.2452 13.226 18.525 12.522 18.0263L11.9411 18.8464C12.3626 19.145 12.5732 19.5503 12.5732 20.1247H13.5782ZM12.522 18.0263C11.8924 17.5804 11.101 17.2542 10.1666 17.0329L9.935 18.0108C10.7828 18.2116 11.4451 18.4951 11.9411 18.8464L12.522 18.0263ZM10.1787 17.0359C9.27847 16.799 8.32042 16.5743 7.30472 16.3617L7.09884 17.3454C8.09974 17.5549 9.04103 17.7757 9.92293 18.0078L10.1787 17.0359ZM7.30706 16.3622C6.34407 16.1559 5.42908 15.8927 4.56163 15.5731L4.21422 16.5161C5.12888 16.8531 6.08979 17.1292 7.0965 17.3449L7.30706 16.3622ZM4.57242 15.5772C3.74082 15.2489 3.08054 14.8078 2.57641 14.2617L1.83797 14.9433C2.45938 15.6165 3.25293 16.1368 4.20343 16.512L4.57242 15.5772ZM2.58274 14.2687C2.12217 13.7505 1.86551 13.0251 1.86551 12.0348H0.860559C0.860559 13.2018 1.16667 14.1882 1.83164 14.9363L2.58274 14.2687ZM1.86551 12.0348C1.86551 10.5784 2.38085 9.50414 3.38931 8.74265L2.78373 7.94066C1.4942 8.91438 0.860559 10.3022 0.860559 12.0348H1.86551ZM3.39056 8.7417C4.43942 7.94457 6.03599 7.50755 8.25698 7.50755V6.5026C5.9289 6.5026 4.0785 6.95663 2.78248 7.9416L3.39056 8.7417ZM8.25698 7.50755C9.75711 7.50755 10.9249 7.74709 11.7914 8.19093L12.2496 7.29649C11.1933 6.75548 9.85208 6.5026 8.25698 6.5026V7.50755ZM11.8045 8.19737C12.7242 8.63534 13.3842 9.18997 13.8163 9.8484L14.6565 9.29703C14.1038 8.45474 13.2865 7.79003 12.2365 7.29005L11.8045 8.19737ZM13.8224 9.85738C14.2932 10.5422 14.5669 11.2725 14.6514 12.0537L15.6505 11.9457C15.5473 10.9916 15.2114 10.1039 14.6505 9.28805L13.8224 9.85738ZM15.1509 11.4972H12.4778V12.5021H15.1509V11.4972ZM12.9764 11.9373C12.8646 11.0432 12.4138 10.2869 11.6712 9.67686L11.0333 10.4534C11.6037 10.922 11.9033 11.4554 11.9792 12.062L12.9764 11.9373ZM11.6781 9.68263C10.9061 9.02507 9.70002 8.75368 8.18663 8.75368V9.75863C9.62779 9.75863 10.5321 10.0266 11.0264 10.4476L11.6781 9.68263ZM8.18663 8.75368C6.75714 8.75368 5.60111 8.96698 4.78731 9.45936C3.93288 9.97633 3.49855 10.7762 3.49855 11.7886H4.50349C4.50349 11.1127 4.76676 10.6464 5.30754 10.3192C5.88894 9.96741 6.82572 9.75863 8.18663 9.75863V8.75368ZM3.49855 11.7886C3.49855 12.652 3.85732 13.3519 4.56645 13.8247L5.1239 12.9885C4.7075 12.7109 4.50349 12.3321 4.50349 11.7886H3.49855ZM4.56645 13.8247C5.18876 14.2395 5.97139 14.5632 6.89804 14.807L7.15379 13.8352C6.29833 13.61 5.62713 13.324 5.1239 12.9885L4.56645 13.8247ZM6.91011 14.81C7.80499 15.022 8.74646 15.2338 9.73449 15.4455L9.94505 14.4629C8.96338 14.2525 8.02895 14.0423 7.14172 13.8321L6.91011 14.81ZM9.74786 15.4482C10.7267 15.6303 11.6452 15.8915 12.5043 16.2306L12.8733 15.2958C11.9503 14.9315 10.9694 14.6533 9.93167 14.4602L9.74786 15.4482ZM12.5043 16.2306C13.3276 16.5556 13.9841 17.0147 14.488 17.6026L15.251 16.9486C14.6295 16.2235 13.8321 15.6743 12.8733 15.2958L12.5043 16.2306ZM14.494 17.6095C14.9529 18.1257 15.2112 18.8615 15.2112 19.8785H16.2162C16.2162 18.6912 15.9117 17.6918 15.2451 16.9418L14.494 17.6095ZM15.2112 19.8785C15.2112 21.4393 14.6243 22.5924 13.4568 23.4055L14.0312 24.2302C15.4899 23.2143 16.2162 21.7411 16.2162 19.8785H15.2112ZM13.4584 23.4045C12.2797 24.2188 10.6557 24.652 8.53836 24.652V25.6569C10.7825 25.6569 12.629 25.199 14.0296 24.2313L13.4584 23.4045ZM19.1052 24.873H18.6027V25.3755H19.1052V24.873ZM19.1052 0.251822V-0.250652H18.6027V0.251822H19.1052ZM21.7431 0.251822H22.2456V-0.250652H21.7431V0.251822ZM21.7431 10.03H21.2407V11.5374L22.1451 10.3315L21.7431 10.03ZM24.0646 7.8844L24.3357 8.30743L24.3357 8.30742L24.0646 7.8844ZM30.9937 7.8844L30.7496 8.32379L30.7613 8.32989L30.9937 7.8844ZM33.5965 10.452L33.1601 10.7014L33.1664 10.7119L33.5965 10.452ZM34.6165 24.873V25.3755H35.119V24.873H34.6165ZM31.9785 24.873H31.4761V25.3755H31.9785V24.873ZM30.6068 10.8741L30.2385 11.2161L30.2427 11.2204L30.6068 10.8741ZM24.3811 10.0651L24.136 9.62651V9.62651L24.3811 10.0651ZM22.4466 11.9645L22.0157 11.706L22.0135 11.7097L22.4466 11.9645ZM21.7431 24.873V25.3755H22.2456V24.873H21.7431ZM19.6076 24.873V0.251822H18.6027V24.873H19.6076ZM19.1052 0.754296H21.7431V-0.250652H19.1052V0.754296ZM21.2407 0.251822V10.03H22.2456V0.251822H21.2407ZM22.1451 10.3315C22.7412 9.53671 23.4702 8.86224 24.3357 8.30743L23.7934 7.46138C22.8299 8.07901 22.0113 8.83491 21.3412 9.72848L22.1451 10.3315ZM24.3357 8.30742C25.1474 7.78713 26.2178 7.50755 27.5819 7.50755V6.5026C26.0852 6.5026 24.8108 6.80923 23.7934 7.46138L24.3357 8.30742ZM27.5819 7.50755C28.7167 7.50755 29.7699 7.77933 30.7497 8.32364L31.2377 7.44516C30.1071 6.81703 28.8857 6.5026 27.5819 6.5026V7.50755ZM30.7613 8.32989C31.7471 8.84424 32.5471 9.62829 33.1602 10.7013L34.0328 10.2027C33.3328 8.97782 32.3976 8.05011 31.2261 7.43892L30.7613 8.32989ZM33.1664 10.7119C33.788 11.7407 34.114 13.0403 34.114 14.6377H35.119C35.119 12.9053 34.765 11.4145 34.0266 10.1922L33.1664 10.7119ZM34.114 14.6377V24.873H35.119V14.6377H34.114ZM34.6165 24.3706H31.9785V25.3755H34.6165V24.3706ZM32.481 24.873V14.708H31.4761V24.873H32.481ZM32.481 14.708C32.481 13.0122 31.9916 11.6009 30.9709 10.5278L30.2427 11.2204C31.051 12.0702 31.4761 13.2148 31.4761 14.708H32.481ZM30.975 10.5322C29.9571 9.43599 28.6351 8.89437 27.0543 8.89437V9.89932C28.3812 9.89932 29.4275 10.3426 30.2386 11.216L30.975 10.5322ZM27.0543 8.89437C25.9905 8.89437 25.014 9.13586 24.136 9.62651L24.6262 10.5038C25.3428 10.1034 26.1483 9.89932 27.0543 9.89932V8.89437ZM24.136 9.62651C23.2584 10.1169 22.551 10.8138 22.0157 11.706L22.8775 12.223C23.327 11.4738 23.9093 10.9044 24.6262 10.5038L24.136 9.62651ZM22.0135 11.7097C21.493 12.5946 21.2407 13.6112 21.2407 14.7432H22.2456C22.2456 13.7647 22.4622 12.9289 22.8797 12.2193L22.0135 11.7097ZM21.2407 14.7432V24.873H22.2456V14.7432H21.2407ZM21.7431 24.3706H19.1052V25.3755H21.7431V24.3706ZM42.0172 23.9585L41.7508 24.3847L41.7564 24.3881L42.0172 23.9585ZM38.9923 11.5072L39.4386 11.7381L39.4402 11.735L38.9923 11.5072ZM42.0172 8.23613L42.278 8.66568L42.2835 8.66223L42.0172 8.23613ZM51.3029 8.23613L51.0331 8.66015L51.0421 8.66564L51.3029 8.23613ZM54.3278 11.5072L53.8799 11.735L53.8815 11.7381L54.3278 11.5072ZM54.3278 20.6523L53.8799 20.4245L54.3278 20.6523ZM51.3029 23.9585L51.5671 24.386L51.5692 24.3846L51.3029 23.9585ZM49.9663 21.8482L49.6876 21.43L49.6826 21.4335L49.9663 21.8482ZM52.0415 19.4212L52.4972 19.6331L52.499 19.6291L52.0415 19.4212ZM52.0415 12.7383L52.4971 12.5264L52.0415 12.7383ZM49.9663 10.3114L49.6826 10.7261L49.6876 10.7294L49.9663 10.3114ZM43.3538 10.3114L43.075 9.89327L43.3538 10.3114ZM41.2785 12.7383L40.8229 12.5264L41.2785 12.7383ZM41.2785 19.4212L40.8211 19.6291L40.8229 19.6331L41.2785 19.4212ZM46.66 24.652C44.9549 24.652 43.5006 24.2714 42.278 23.529L41.7564 24.3881C43.16 25.2402 44.8009 25.6569 46.66 25.6569V24.652ZM42.2835 23.5324C41.048 22.7602 40.1024 21.7268 39.4402 20.4245L38.5444 20.88C39.2891 22.3447 40.3601 23.5154 41.7509 24.3846L42.2835 23.5324ZM39.4402 20.4245C38.7752 19.1167 38.4396 17.6714 38.4396 16.0798H37.4346C37.4346 17.8179 37.8025 19.4209 38.5444 20.88L39.4402 20.4245ZM38.4396 16.0798C38.4396 14.4634 38.7757 13.0197 39.4386 11.7381L38.546 11.2764C37.8019 12.7149 37.4346 14.3195 37.4346 16.0798H38.4396ZM39.4402 11.735C40.1017 10.434 41.0456 9.41384 42.278 8.66564L41.7564 7.80663C40.3625 8.65294 39.2898 9.81357 38.5444 11.2795L39.4402 11.735ZM42.2835 8.66223C43.5053 7.8986 44.9576 7.50755 46.66 7.50755V6.5026C44.7983 6.5026 43.1553 6.93225 41.7509 7.81004L42.2835 8.66223ZM46.66 7.50755C48.3876 7.50755 49.8377 7.89933 51.0331 8.66005L51.5727 7.81222C50.1887 6.93152 48.5436 6.5026 46.66 6.5026V7.50755ZM51.0421 8.66564C52.2745 9.41384 53.2184 10.434 53.8799 11.735L54.7757 11.2795C54.0303 9.81357 52.9576 8.65294 51.5637 7.80663L51.0421 8.66564ZM53.8815 11.7381C54.5444 13.0197 54.8805 14.4634 54.8805 16.0798H55.8855C55.8855 14.3195 55.5181 12.7149 54.7741 11.2764L53.8815 11.7381ZM54.8805 16.0798C54.8805 17.6714 54.5449 19.1167 53.8799 20.4245L54.7757 20.88C55.5176 19.4209 55.8855 17.8179 55.8855 16.0798H54.8805ZM53.8799 20.4245C53.2177 21.7268 52.2721 22.7602 51.0366 23.5324L51.5692 24.3846C52.96 23.5154 54.0309 22.3447 54.7757 20.88L53.8799 20.4245ZM51.0387 23.5311C49.8424 24.2707 48.3902 24.652 46.66 24.652V25.6569C48.5409 25.6569 50.184 25.2409 51.5671 24.3859L51.0387 23.5311ZM46.66 23.2651C48.0522 23.2651 49.2588 22.9411 50.2501 22.2628L49.6826 21.4335C48.8917 21.9746 47.8941 22.2602 46.66 22.2602V23.2651ZM50.245 22.2662C51.2373 21.6048 51.9897 20.724 52.4971 19.6331L51.5859 19.2093C51.1554 20.135 50.5244 20.8722 49.6876 21.4301L50.245 22.2662ZM52.499 19.6291C52.9993 18.5285 53.2475 17.3433 53.2475 16.0798H52.2425C52.2425 17.208 52.0218 18.2504 51.5841 19.2133L52.499 19.6291ZM53.2475 16.0798C53.2475 14.7944 52.9999 13.6073 52.4971 12.5264L51.5859 12.9502C52.0212 13.8859 52.2425 14.9265 52.2425 16.0798H53.2475ZM52.4971 12.5264C51.9897 11.4355 51.2373 10.5547 50.245 9.89327L49.6876 10.7294C50.5244 11.2873 51.1554 12.0245 51.5859 12.9502L52.4971 12.5264ZM50.2501 9.89666C49.2588 9.21844 48.0522 8.89437 46.66 8.89437V9.89932C47.8941 9.89932 48.8917 10.1849 49.6826 10.726L50.2501 9.89666ZM46.66 8.89437C45.2887 8.89437 44.0856 9.21957 43.075 9.89327L43.6325 10.7294C44.4509 10.1838 45.452 9.89932 46.66 9.89932V8.89437ZM43.075 9.89327C42.0828 10.5547 41.3303 11.4355 40.8229 12.5264L41.7341 12.9502C42.1647 12.0245 42.7957 11.2873 43.6325 10.7294L43.075 9.89327ZM40.8229 12.5264C40.3202 13.6073 40.0726 14.7944 40.0726 16.0798H41.0776C41.0776 14.9265 41.2989 13.8859 41.7341 12.9502L40.8229 12.5264ZM40.0726 16.0798C40.0726 17.3433 40.3208 18.5285 40.8211 19.6291L41.736 19.2133C41.2983 18.2504 41.0776 17.208 41.0776 16.0798H40.0726ZM40.8229 19.6331C41.3303 20.724 42.0828 21.6048 43.075 22.2662L43.6325 21.4301C42.7957 20.8722 42.1647 20.135 41.7341 19.2093L40.8229 19.6331ZM43.075 22.2662C44.0856 22.9399 45.2887 23.2651 46.66 23.2651V22.2602C45.452 22.2602 44.4509 21.9757 43.6325 21.4301L43.075 22.2662ZM62.0115 23.9585L61.7485 24.3868L61.7541 24.3901L62.0115 23.9585ZM58.8811 20.6523L58.4362 20.886L58.4394 20.8918L58.8811 20.6523ZM58.8459 11.5072L59.2922 11.7381L59.2938 11.735L58.8459 11.5072ZM61.8708 8.23613L62.1316 8.66568L62.1371 8.66223L61.8708 8.23613ZM71.1565 8.23613L70.8867 8.66015L70.8957 8.66564L71.1565 8.23613ZM74.1814 11.5072L73.7335 11.735L73.7351 11.7381L74.1814 11.5072ZM75.2366 17.1349V17.6374H75.7391V17.1349H75.2366ZM60.499 17.1349V16.6325H59.9234L60.0012 17.2028L60.499 17.1349ZM61.4839 19.984L61.052 20.2408L61.0561 20.2477L61.0604 20.2545L61.4839 19.984ZM63.6294 22.024L63.3776 22.459L63.3864 22.4638L63.6294 22.024ZM69.8551 21.9537L70.1257 22.3772L70.1338 22.3718L69.8551 21.9537ZM71.8248 19.8081V19.3056H71.5252L71.3828 19.5692L71.8248 19.8081ZM74.709 19.8081L75.1774 19.9899L75.443 19.3056H74.709V19.8081ZM71.7896 23.6772L72.0911 24.0791L72.0922 24.0783L71.7896 23.6772ZM60.5342 14.6728L60.039 14.5877L59.938 15.1753H60.5342V14.6728ZM72.4931 14.6728V15.1753H73.0802L72.9895 14.5953L72.4931 14.6728ZM70.5937 10.9093L70.9449 10.5499L70.5937 10.9093ZM62.4336 10.9093L62.0823 10.5499L62.0783 10.554L62.4336 10.9093ZM66.6895 24.652C64.9846 24.652 63.5169 24.2714 62.2689 23.527L61.7541 24.3901C63.1792 25.2402 64.8302 25.6569 66.6895 25.6569V24.652ZM62.2744 23.5303C61.0132 22.7559 60.0313 21.719 59.3228 20.4127L58.4394 20.8918C59.2316 22.3525 60.3366 23.5198 61.7486 24.3867L62.2744 23.5303ZM59.3259 20.4186C58.6393 19.1118 58.2932 17.6687 58.2932 16.0798H57.2882C57.2882 17.8206 57.669 19.4257 58.4363 20.886L59.3259 20.4186ZM58.2932 16.0798C58.2932 14.4634 58.6293 13.0197 59.2922 11.7381L58.3996 11.2764C57.6555 12.7149 57.2882 14.3195 57.2882 16.0798H58.2932ZM59.2938 11.735C59.9553 10.434 60.8992 9.41384 62.1316 8.66564L61.61 7.80663C60.2161 8.65294 59.1434 9.81357 58.398 11.2795L59.2938 11.735ZM62.1371 8.66223C63.3589 7.8986 64.8112 7.50755 66.5136 7.50755V6.5026C64.6519 6.5026 63.0089 6.93225 61.6045 7.81004L62.1371 8.66223ZM66.5136 7.50755C68.2412 7.50755 69.6913 7.89933 70.8867 8.66005L71.4263 7.81222C70.0423 6.93152 68.3972 6.5026 66.5136 6.5026V7.50755ZM70.8957 8.66564C72.1281 9.41384 73.072 10.434 73.7335 11.735L74.6293 11.2795C73.8839 9.81357 72.8112 8.65294 71.4173 7.80663L70.8957 8.66564ZM73.7351 11.7381C74.398 13.0197 74.7341 14.4634 74.7341 16.0798H75.7391C75.7391 14.3195 75.3717 12.7149 74.6277 11.2764L73.7351 11.7381ZM74.7341 16.0798V17.1349H75.7391V16.0798H74.7341ZM75.2366 16.6325H60.499V17.6374H75.2366V16.6325ZM60.0012 17.2028C60.1507 18.2992 60.5006 19.3134 61.052 20.2408L61.9158 19.7272C61.4354 18.9193 61.1288 18.0342 60.9969 17.0671L60.0012 17.2028ZM61.0604 20.2545C61.6443 21.1683 62.4191 21.9039 63.3777 22.4589L63.8812 21.5892C63.0577 21.1124 62.4021 20.488 61.9073 19.7134L61.0604 20.2545ZM63.3864 22.4638C64.3625 23.0032 65.4803 23.2651 66.7247 23.2651V22.2602C65.6242 22.2602 64.6785 22.0297 63.8725 21.5842L63.3864 22.4638ZM66.7247 23.2651C68.0403 23.2651 69.1832 22.9792 70.1256 22.3771L69.5846 21.5302C68.8387 22.0068 67.8947 22.2602 66.7247 22.2602V23.2651ZM70.1338 22.3718C71.0442 21.7648 71.7577 20.9889 72.2668 20.047L71.3828 19.5692C70.9539 20.3625 70.3543 21.017 69.5764 21.5356L70.1338 22.3718ZM71.8248 20.3106H74.709V19.3056H71.8248V20.3106ZM74.2406 19.6263C73.6645 21.1109 72.7485 22.3244 71.487 23.276L72.0922 24.0783C73.5039 23.0133 74.5342 21.6475 75.1774 19.9899L74.2406 19.6263ZM71.4881 23.2752C70.2831 24.1789 68.6975 24.652 66.6895 24.652V25.6569C68.8554 25.6569 70.6699 25.1451 72.0911 24.0791L71.4881 23.2752ZM60.5342 15.1753H72.4931V14.1704H60.5342V15.1753ZM72.9895 14.5953C72.7393 12.9934 72.0585 11.6382 70.9449 10.5499L70.2425 11.2687C71.1925 12.197 71.7779 13.3508 71.9966 14.7504L72.9895 14.5953ZM70.9449 10.5499C69.8034 9.43436 68.3092 8.89437 66.5136 8.89437V9.89932C68.0947 9.89932 69.3206 10.3676 70.2425 11.2687L70.9449 10.5499ZM66.5136 8.89437C64.7181 8.89437 63.2239 9.43436 62.0824 10.5499L62.7848 11.2687C63.7067 10.3676 64.9326 9.89932 66.5136 9.89932V8.89437ZM62.0783 10.554C60.9914 11.6408 60.3133 12.992 60.039 14.5877L61.0294 14.7579C61.271 13.3522 61.8591 12.1944 62.7889 11.2646L62.0783 10.554ZM80.3592 24.873H79.8568V25.3755H80.3592V24.873ZM80.3592 9.60789H80.8617V9.10541H80.3592V9.60789ZM76.7716 9.60789H76.2691V10.1104H76.7716V9.60789ZM76.7716 7.28646V6.78399H76.2691V7.28646H76.7716ZM80.3592 7.28646V7.78893H80.8617V7.28646H80.3592ZM80.3592 0.99046V0.487986H79.8568V0.99046H80.3592ZM82.9972 0.99046H83.4997V0.487986H82.9972V0.99046ZM82.9972 7.28646H82.4948V7.78893H82.9972V7.28646ZM87.0421 7.28646H87.5446V6.78399H87.0421V7.28646ZM87.0421 9.60789V10.1104H87.5446V9.60789H87.0421ZM82.9972 9.60789V9.10541H82.4948V9.60789H82.9972ZM82.9972 24.873V25.3755H83.4997V24.873H82.9972ZM80.8617 24.873V9.60789H79.8568V24.873H80.8617ZM80.3592 9.10541H76.7716V10.1104H80.3592V9.10541ZM77.274 9.60789V7.28646H76.2691V9.60789H77.274ZM76.7716 7.78893H80.3592V6.78399H76.7716V7.78893ZM80.8617 7.28646V0.99046H79.8568V7.28646H80.8617ZM80.3592 1.49293H82.9972V0.487986H80.3592V1.49293ZM82.4948 0.99046V7.28646H83.4997V0.99046H82.4948ZM82.9972 7.78893H87.0421V6.78399H82.9972V7.78893ZM86.5397 7.28646V9.60789H87.5446V7.28646H86.5397ZM87.0421 9.10541H82.9972V10.1104H87.0421V9.10541ZM82.4948 9.60789V24.873H83.4997V9.60789H82.4948ZM82.9972 24.3706H80.3592V25.3755H82.9972V24.3706ZM89.9324 24.873H89.4299V25.3755H89.9324V24.873ZM89.9324 0.251822V-0.250652H89.4299V0.251822H89.9324ZM92.5704 0.251822H93.0729V-0.250652H92.5704V0.251822ZM92.5704 10.03H92.0679V11.5374L92.9724 10.3315L92.5704 10.03ZM94.8918 7.8844L95.163 8.30743V8.30742L94.8918 7.8844ZM101.821 7.8844L101.577 8.32379L101.588 8.32989L101.821 7.8844ZM104.424 10.452L103.987 10.7014L103.994 10.7119L104.424 10.452ZM105.444 24.873V25.3755H105.946V24.873H105.444ZM102.806 24.873H102.303V25.3755H102.806V24.873ZM101.434 10.8741L101.066 11.2161L101.07 11.2204L101.434 10.8741ZM95.2084 10.0651L94.9632 9.62651V9.62651L95.2084 10.0651ZM93.2738 11.9645L92.843 11.706L92.8407 11.7097L93.2738 11.9645ZM92.5704 24.873V25.3755H93.0729V24.873H92.5704ZM90.4349 24.873V0.251822H89.4299V24.873H90.4349ZM89.9324 0.754296H92.5704V-0.250652H89.9324V0.754296ZM92.0679 0.251822V10.03H93.0729V0.251822H92.0679ZM92.9724 10.3315C93.5684 9.53671 94.2975 8.86224 95.163 8.30743L94.6206 7.46138C93.6571 8.07901 92.8386 8.83491 92.1684 9.72848L92.9724 10.3315ZM95.163 8.30742C95.9746 7.78713 97.045 7.50755 98.4091 7.50755V6.5026C96.9125 6.5026 95.638 6.80923 94.6206 7.46138L95.163 8.30742ZM98.4091 7.50755C99.544 7.50755 100.597 7.77933 101.577 8.32364L102.065 7.44516C100.934 6.81703 99.713 6.5026 98.4091 6.5026V7.50755ZM101.588 8.32989C102.574 8.84424 103.374 9.62829 103.987 10.7013L104.86 10.2027C104.16 8.97782 103.225 8.05011 102.053 7.43892L101.588 8.32989ZM103.994 10.7119C104.615 11.7407 104.941 13.0403 104.941 14.6377H105.946C105.946 12.9053 105.592 11.4145 104.854 10.1922L103.994 10.7119ZM104.941 14.6377V24.873H105.946V14.6377H104.941ZM105.444 24.3706H102.806V25.3755H105.444V24.3706ZM103.308 24.873V14.708H102.303V24.873H103.308ZM103.308 14.708C103.308 13.0122 102.819 11.6009 101.798 10.5278L101.07 11.2204C101.878 12.0702 102.303 13.2148 102.303 14.708H103.308ZM101.802 10.5322C100.784 9.43599 99.4623 8.89437 97.8815 8.89437V9.89932C99.2084 9.89932 100.255 10.3426 101.066 11.216L101.802 10.5322ZM97.8815 8.89437C96.8178 8.89437 95.8412 9.13586 94.9632 9.62651L95.4535 10.5038C96.17 10.1034 96.9756 9.89932 97.8815 9.89932V8.89437ZM94.9632 9.62651C94.0857 10.1169 93.3783 10.8138 92.843 11.706L93.7047 12.223C94.1543 11.4738 94.7365 10.9044 95.4535 10.5038L94.9632 9.62651ZM92.8407 11.7097C92.3202 12.5946 92.0679 13.6112 92.0679 14.7432H93.0729C93.0729 13.7647 93.2895 12.9289 93.7069 12.2193L92.8407 11.7097ZM92.0679 14.7432V24.873H93.0729V14.7432H92.0679ZM92.5704 24.3706H89.9324V25.3755H92.5704V24.3706ZM112.844 23.9585L112.578 24.3847L112.584 24.3881L112.844 23.9585ZM109.82 11.5072L110.266 11.7381L110.267 11.735L109.82 11.5072ZM112.844 8.23613L113.105 8.66568L113.111 8.66223L112.844 8.23613ZM122.13 8.23613L121.86 8.66015L121.869 8.66564L122.13 8.23613ZM125.155 11.5072L124.707 11.735L124.709 11.7381L125.155 11.5072ZM125.155 20.6523L124.707 20.4245L125.155 20.6523ZM122.13 23.9585L122.394 24.386L122.396 24.3846L122.13 23.9585ZM120.794 21.8482L120.515 21.43L120.51 21.4335L120.794 21.8482ZM122.869 19.4212L123.324 19.6331L123.326 19.6291L122.869 19.4212ZM122.869 12.7383L123.324 12.5264L122.869 12.7383ZM120.794 10.3114L120.51 10.7261L120.515 10.7294L120.794 10.3114ZM114.181 10.3114L113.902 9.89327L114.181 10.3114ZM112.106 12.7383L111.65 12.5264L112.106 12.7383ZM112.106 19.4212L111.648 19.6291L111.65 19.6331L112.106 19.4212ZM117.487 24.652C115.782 24.652 114.328 24.2714 113.105 23.529L112.584 24.3881C113.987 25.2402 115.628 25.6569 117.487 25.6569V24.652ZM113.111 23.5324C111.875 22.7602 110.93 21.7268 110.267 20.4245L109.372 20.88C110.116 22.3447 111.187 23.5154 112.578 24.3846L113.111 23.5324ZM110.267 20.4245C109.602 19.1167 109.267 17.6714 109.267 16.0798H108.262C108.262 17.8179 108.63 19.4209 109.372 20.88L110.267 20.4245ZM109.267 16.0798C109.267 14.4634 109.603 13.0197 110.266 11.7381L109.373 11.2764C108.629 12.7149 108.262 14.3195 108.262 16.0798H109.267ZM110.267 11.735C110.929 10.434 111.873 9.41384 113.105 8.66564L112.584 7.80663C111.19 8.65294 110.117 9.81357 109.372 11.2795L110.267 11.735ZM113.111 8.66223C114.333 7.8986 115.785 7.50755 117.487 7.50755V6.5026C115.625 6.5026 113.983 6.93225 112.578 7.81004L113.111 8.66223ZM117.487 7.50755C119.215 7.50755 120.665 7.89933 121.86 8.66005L122.4 7.81222C121.016 6.93152 119.371 6.5026 117.487 6.5026V7.50755ZM121.869 8.66564C123.102 9.41384 124.046 10.434 124.707 11.735L125.603 11.2795C124.858 9.81357 123.785 8.65294 122.391 7.80663L121.869 8.66564ZM124.709 11.7381C125.372 13.0197 125.708 14.4634 125.708 16.0798H126.713C126.713 14.3195 126.345 12.7149 125.601 11.2764L124.709 11.7381ZM125.708 16.0798C125.708 17.6714 125.372 19.1167 124.707 20.4245L125.603 20.88C126.345 19.4209 126.713 17.8179 126.713 16.0798H125.708ZM124.707 20.4245C124.045 21.7268 123.099 22.7602 121.864 23.5324L122.396 24.3846C123.787 23.5154 124.858 22.3447 125.603 20.88L124.707 20.4245ZM121.866 23.5311C120.67 24.2707 119.217 24.652 117.487 24.652V25.6569C119.368 25.6569 121.011 25.2409 122.394 24.3859L121.866 23.5311ZM117.487 23.2651C118.879 23.2651 120.086 22.9411 121.077 22.2628L120.51 21.4335C119.719 21.9746 118.721 22.2602 117.487 22.2602V23.2651ZM121.072 22.2662C122.064 21.6048 122.817 20.724 123.324 19.6331L122.413 19.2093C121.983 20.135 121.352 20.8722 120.515 21.4301L121.072 22.2662ZM123.326 19.6291C123.826 18.5285 124.075 17.3433 124.075 16.0798H123.07C123.07 17.208 122.849 18.2504 122.411 19.2133L123.326 19.6291ZM124.075 16.0798C124.075 14.7944 123.827 13.6073 123.324 12.5264L122.413 12.9502C122.848 13.8859 123.07 14.9265 123.07 16.0798H124.075ZM123.324 12.5264C122.817 11.4355 122.064 10.5547 121.072 9.89327L120.515 10.7294C121.352 11.2873 121.983 12.0245 122.413 12.9502L123.324 12.5264ZM121.077 9.89666C120.086 9.21844 118.879 8.89437 117.487 8.89437V9.89932C118.721 9.89932 119.719 10.1849 120.51 10.726L121.077 9.89666ZM117.487 8.89437C116.116 8.89437 114.913 9.21957 113.902 9.89327L114.46 10.7294C115.278 10.1838 116.279 9.89932 117.487 9.89932V8.89437ZM113.902 9.89327C112.91 10.5547 112.158 11.4355 111.65 12.5264L112.561 12.9502C112.992 12.0245 113.623 11.2873 114.46 10.7294L113.902 9.89327ZM111.65 12.5264C111.147 13.6073 110.9 14.7944 110.9 16.0798H111.905C111.905 14.9265 112.126 13.8859 112.561 12.9502L111.65 12.5264ZM110.9 16.0798C110.9 17.3433 111.148 18.5285 111.648 19.6291L112.563 19.2133C112.126 18.2504 111.905 17.208 111.905 16.0798H110.9ZM111.65 19.6331C112.158 20.724 112.91 21.6048 113.902 22.2662L114.46 21.4301C113.623 20.8722 112.992 20.135 112.561 19.2093L111.65 19.6331ZM113.902 22.2662C114.913 22.9399 116.116 23.2651 117.487 23.2651V22.2602C116.279 22.2602 115.278 21.9757 114.46 21.4301L113.902 22.2662ZM129.708 24.873H129.206V25.3755H129.708V24.873ZM129.708 7.28646V6.78399H129.206V7.28646H129.708ZM132.346 7.28646H132.849V6.78399H132.346V7.28646ZM132.346 11.6128H131.844L132.827 11.7605L132.346 11.6128ZM132.874 10.4169L132.433 10.1762L132.429 10.1837L132.874 10.4169ZM134.07 8.86925L134.425 9.22455L134.07 8.86925ZM136.004 7.56784L136.212 8.02532L136.218 8.02249L136.004 7.56784ZM138.994 7.00507H139.496V6.5026H138.994V7.00507ZM138.994 9.64306V10.1455H139.496V9.64306H138.994ZM135.266 10.7334L135.567 11.1354L135.569 11.1342L135.266 10.7334ZM133.085 13.5121L132.627 13.3063L132.625 13.3107L133.085 13.5121ZM132.346 24.873V25.3755H132.849V24.873H132.346ZM130.211 24.873V7.28646H129.206V24.873H130.211ZM129.708 7.78893H132.346V6.78399H129.708V7.78893ZM131.844 7.28646V11.6128H132.849V7.28646H131.844ZM132.827 11.7605C132.907 11.4991 133.067 11.132 133.319 10.65L132.429 10.1837C132.165 10.6866 131.973 11.1168 131.866 11.465L132.827 11.7605ZM133.315 10.6575C133.569 10.1925 133.935 9.71432 134.425 9.22455L133.714 8.51395C133.172 9.05593 132.742 9.60953 132.433 10.1763L133.315 10.6575ZM134.425 9.22455C134.892 8.75769 135.484 8.35612 136.212 8.02528L135.796 7.11041C134.977 7.48303 134.279 7.94907 133.714 8.51395L134.425 9.22455ZM136.218 8.02249C136.935 7.68506 137.797 7.50755 138.818 7.50755V6.5026C137.682 6.5026 136.668 6.70027 135.79 7.1132L136.218 8.02249ZM138.818 7.50755H138.994V6.5026H138.818V7.50755ZM138.492 7.00507V9.64306H139.496V7.00507H138.492ZM138.994 9.14059H138.677V10.1455H138.994V9.14059ZM138.677 9.14059C137.265 9.14059 136.019 9.53375 134.963 10.3326L135.569 11.1342C136.435 10.4793 137.463 10.1455 138.677 10.1455V9.14059ZM134.964 10.3315C133.953 11.0897 133.175 12.0856 132.627 13.3063L133.543 13.7179C134.027 12.6406 134.702 11.7841 135.567 11.1354L134.964 10.3315ZM132.625 13.3107C132.103 14.5029 131.844 15.7795 131.844 17.1349H132.849C132.849 15.9111 133.082 14.7724 133.545 13.7135L132.625 13.3107ZM131.844 17.1349V24.873H132.849V17.1349H131.844ZM132.346 24.3706H129.708V25.3755H132.346V24.3706ZM141.728 4.33191H141.225V4.83438H141.728V4.33191ZM141.728 0.88494V0.382465H141.225V0.88494H141.728ZM144.577 0.88494H145.079V0.382465H144.577V0.88494ZM144.577 4.33191V4.83438H145.079V4.33191H144.577ZM141.833 24.873H141.331V25.3755H141.833V24.873ZM141.833 7.28646V6.78399H141.331V7.28646H141.833ZM144.471 7.28646H144.974V6.78399H144.471V7.28646ZM144.471 24.873V25.3755H144.974V24.873H144.471ZM142.23 4.33191V0.88494H141.225V4.33191H142.23ZM141.728 1.38741H144.577V0.382465H141.728V1.38741ZM144.074 0.88494V4.33191H145.079V0.88494H144.074ZM144.577 3.82944H141.728V4.83438H144.577V3.82944ZM142.336 24.873V7.28646H141.331V24.873H142.336ZM141.833 7.78893H144.471V6.78399H141.833V7.78893ZM143.969 7.28646V24.873H144.974V7.28646H143.969ZM144.471 24.3706H141.833V25.3755H144.471V24.3706ZM150.946 24.873H150.444V25.3755H150.946V24.873ZM150.946 9.60789H151.449V9.10541H150.946V9.60789ZM147.358 9.60789H146.856V10.1104H147.358V9.60789ZM147.358 7.28646V6.78399H146.856V7.28646H147.358ZM150.946 7.28646V7.78893H151.449V7.28646H150.946ZM150.946 0.99046V0.487986H150.444V0.99046H150.946ZM153.584 0.99046H154.086V0.487986H153.584V0.99046ZM153.584 7.28646H153.082V7.78893H153.584V7.28646ZM157.629 7.28646H158.131V6.78399H157.629V7.28646ZM157.629 9.60789V10.1104H158.131V9.60789H157.629ZM153.584 9.60789V9.10541H153.082V9.60789H153.584ZM153.584 24.873V25.3755H154.086V24.873H153.584ZM151.449 24.873V9.60789H150.444V24.873H151.449ZM150.946 9.10541H147.358V10.1104H150.946V9.10541ZM147.861 9.60789V7.28646H146.856V9.60789H147.861ZM147.358 7.78893H150.946V6.78399H147.358V7.78893ZM151.449 7.28646V0.99046H150.444V7.28646H151.449ZM150.946 1.49293H153.584V0.487986H150.946V1.49293ZM153.082 0.99046V7.28646H154.086V0.99046H153.082ZM153.584 7.78893H157.629V6.78399H153.584V7.78893ZM157.126 7.28646V9.60789H158.131V7.28646H157.126ZM157.629 9.10541H153.584V10.1104H157.629V9.10541ZM153.082 9.60789V24.873H154.086V9.60789H153.082ZM153.584 24.3706H150.946V25.3755H153.584V24.3706ZM162.348 31.8373L161.889 31.6335L161.575 32.3398H162.348V31.8373ZM165.549 24.6268L166.008 24.8307L166.096 24.6338L166.013 24.4347L165.549 24.6268ZM158.374 7.28646V6.78399H157.622L157.909 7.47858L158.374 7.28646ZM161.293 7.28646L161.761 7.1028L161.635 6.78399H161.293V7.28646ZM166.956 21.7075L166.488 21.8911L166.952 23.0712L167.422 21.8941L166.956 21.7075ZM172.724 7.28646V6.78399H172.384L172.258 7.09984L172.724 7.28646ZM175.608 7.28646L176.071 7.48263L176.367 6.78399H175.608V7.28646ZM165.197 31.8373V32.3398H165.53L165.66 32.0335L165.197 31.8373ZM162.807 32.0412L166.008 24.8307L165.09 24.423L161.889 31.6335L162.807 32.0412ZM166.013 24.4347L158.838 7.09434L157.909 7.47858L165.085 24.819L166.013 24.4347ZM158.374 7.78893H161.293V6.78399H158.374V7.78893ZM160.825 7.47012L166.488 21.8911L167.424 21.5238L161.761 7.1028L160.825 7.47012ZM167.422 21.8941L173.191 7.47307L172.258 7.09984L166.489 21.5208L167.422 21.8941ZM172.724 7.78893H175.608V6.78399H172.724V7.78893ZM175.146 7.09029L164.735 31.6412L165.66 32.0335L176.071 7.48263L175.146 7.09029ZM165.197 31.3349H162.348V32.3398H165.197V31.3349Z" fill="#FCFCFC"/>
</svg>
