<svg width="10" height="5" viewBox="0 0 10 5" fill="none" xmlns="http://www.w3.org/2000/svg">
<path fill-rule="evenodd" clip-rule="evenodd" d="M2.22678 0.980206C1.91196 0.711025 1.40153 0.711025 1.0867 0.980206C0.77188 1.24939 0.77188 1.68582 1.0867 1.955L4.34807 4.74353C4.35622 4.75115 4.36461 4.75866 4.37324 4.76603C4.5308 4.90075 4.73735 4.96804 4.94385 4.96792C5.15036 4.96804 5.35691 4.90075 5.51446 4.76603C5.52309 4.75865 5.53149 4.75115 5.53964 4.74353L8.801 1.955C9.11583 1.68582 9.11583 1.24939 8.801 0.980206C8.48618 0.711025 7.97575 0.711025 7.66092 0.980206L4.94385 3.30336L2.22678 0.980206Z" fill="#E97136"/>
</svg>
